<svg width="816" height="200" viewBox="0 0 816 200" fill="none" xmlns="http://www.w3.org/2000/svg">
<path d="M131.172 98.0898C159.314 98.0898 182.127 120.903 182.127 149.045C182.127 177.187 159.314 200 131.172 200C114.715 200 100.083 192.196 90.7676 180.09C92.0663 178.723 93.3498 177.255 94.4863 175.791C95.8712 174.007 97.1824 172.053 98.0156 170.171C98.4326 169.229 98.8006 168.148 98.9336 167.012C99.0671 165.871 98.989 164.416 98.2002 163.023C97.2758 161.393 95.7746 160.625 94.6055 160.271C93.4428 159.92 92.2204 159.849 91.1445 159.876C88.9761 159.931 86.4706 160.42 84.1045 161.032C83.3409 161.23 82.5677 161.449 81.7959 161.68C80.7651 157.639 80.2168 153.406 80.2168 149.045C80.2168 140.539 82.3035 132.52 85.9893 125.471C87.9448 125.422 89.9754 125.23 91.7295 124.732C93.3829 124.263 96.1581 123.132 97.1357 120.199C98.1722 117.089 96.3112 114.433 95.2314 113.152C95.1969 113.111 95.1612 113.071 95.126 113.03C104.348 103.8 117.093 98.0898 131.172 98.0898ZM90.165 167.968C89.6786 168.815 89.0063 169.805 88.168 170.885C87.5757 171.648 86.9343 172.412 86.2744 173.157C85.591 171.887 84.9578 170.586 84.3818 169.255C84.9599 169.085 85.5381 168.924 86.1094 168.776C87.6605 168.375 89.0407 168.102 90.165 167.968Z" fill="#FFBF00"/>
<path d="M91.0244 37.8701C94.5961 37.8701 98.106 38.1347 101.536 38.6436C101.442 43.0691 100.462 46.7995 99.5157 49.4502C97.7084 49.4502 92.133 47.2602 84.8457 38.1357C86.882 37.9603 88.9427 37.8701 91.0244 37.8701ZM68.6338 0.000977784C70.9497 -0.0379888 78.8998 1.04143 89.4785 11.6201C95.9955 18.1371 99.2568 24.6083 100.657 30.4531C97.8301 30.1096 94.9571 29.9138 92.0459 29.877L91.0244 29.8701C87.1374 29.8701 83.3159 30.1513 79.5791 30.6934C78.0314 28.2528 76.4358 25.51 74.8096 22.4287C68.181 9.8692 66.3184 0.0409864 68.6338 0.000977784Z" fill="white"/>
<path d="M160.509 163.714C160.509 176.932 149.794 187.647 136.576 187.647C123.358 187.647 112.643 176.932 112.643 163.714C112.643 150.496 123.358 139.78 136.576 139.78C149.794 139.78 160.509 150.496 160.509 163.714Z" fill="#CC972E"/>
<path d="M152.788 120.479C152.788 126.875 147.603 132.06 141.208 132.06C134.812 132.06 129.627 126.875 129.627 120.479C129.627 114.083 134.812 108.898 141.208 108.898C147.603 108.898 152.788 114.083 152.788 120.479Z" fill="#CC972E"/>
<path d="M124.995 127.427C124.995 130.838 122.23 133.604 118.819 133.604C115.408 133.604 112.643 130.838 112.643 127.427C112.643 124.016 115.408 121.251 118.819 121.251C122.23 121.251 124.995 124.016 124.995 127.427Z" fill="#CC972E"/>
<path d="M1.10059 30.0285C3.24429 29.8365 6.10599 29.8159 9.30273 30.1896C15.7435 30.9426 23.1379 33.2436 28.875 38.5021C32.0755 41.4356 35.6796 46.8056 38.8652 52.5792C42.0086 58.2762 44.4893 63.894 45.5547 66.9718L49.335 65.6632L40.0703 77.2433L41.335 73.4484C40.6892 73.2328 38.2211 71.9876 34.123 69.4581C30.1877 67.0291 25.0666 63.6168 19.2822 59.3546C12.6548 54.4712 7.21403 46.5941 3.69434 39.5548C1.94863 36.0634 0.753615 32.9334 0.138672 30.6857C0.0871281 30.4973 0.0414008 30.3189 0 30.1515C0.334324 30.1072 0.70174 30.0642 1.10059 30.0285Z" fill="white"/>
<path d="M91.0244 37.8701C126.666 37.8701 156.174 64.1216 161.272 98.3438C152.461 93.1013 142.168 90.0898 131.171 90.0898C114.603 90.0898 99.6311 96.9237 88.9209 107.927C85.6003 105.762 81.885 103.868 79.3848 102.868L76.4141 110.296C78.7045 111.212 82.5996 113.227 85.7139 115.414C86.6789 116.092 87.4899 116.733 88.126 117.308C87.3647 117.406 86.4483 117.469 85.3936 117.482C81.7931 117.53 77.5392 117.028 74.7246 116.538L73.3535 124.42C74.4903 124.618 75.8518 124.819 77.3301 124.994C74.0441 132.339 72.2158 140.478 72.2158 149.045C72.2158 154.343 72.9183 159.478 74.2295 164.362C73.1536 164.807 72.204 165.231 71.4414 165.605L74.9697 172.786C77.2045 171.688 81.8454 169.88 86.1084 168.776C87.6595 168.375 89.0397 168.102 90.1641 167.968C89.6776 168.815 89.0053 169.805 88.167 170.885C85.7623 173.982 82.5662 177.124 80.4756 178.764L80.8711 179.268L80.1738 178.641C80.2715 178.809 80.3685 178.977 80.4678 179.144C68.976 177.431 58.3827 172.969 49.3809 166.443C47.7284 168.982 44.8681 170.662 41.6133 170.662C36.4967 170.662 32.3486 166.514 32.3486 161.397C32.3487 158.343 33.8274 155.634 36.1074 153.946C26.0401 141.688 19.9961 125.999 19.9961 108.898C19.9961 96.7545 23.0438 85.3224 28.416 75.3252C28.9331 75.6519 29.4343 75.9659 29.9199 76.2656C33.8878 78.7147 37.1332 80.4808 38.8047 81.0381L41.334 73.4482C40.6882 73.2327 38.2202 71.9875 34.1221 69.458C33.6307 69.1547 33.1211 68.8356 32.5938 68.502C35.2505 64.6664 38.2765 61.1062 41.6182 57.8701C43.4323 61.5679 44.8244 64.8649 45.5537 66.9717L53.1143 64.3545C52.1269 61.5023 50.2403 57.1381 47.8652 52.4814C59.8278 43.3162 74.7902 37.8701 91.0244 37.8701ZM114.326 76.0195C115.226 79.2039 113.374 82.5153 110.189 83.416C107.104 84.2882 103.9 82.5775 102.884 79.5742L102.793 79.2803L97.9814 80.6406C98.8819 83.8253 97.0294 87.1376 93.8447 88.0381C90.6602 88.9383 87.3488 87.0868 86.4482 83.9023L81.6367 85.2627C83.2886 91.1044 89.3633 94.5011 95.2051 92.8496C98.4968 91.9188 101.012 89.5831 102.285 86.6768C104.892 88.4861 108.258 89.1582 111.55 88.2275C117.391 86.5755 120.788 80.5009 119.137 74.6592L114.326 76.0195ZM70.9512 74.9287C67.5401 74.9287 64.7744 77.6944 64.7744 81.1055C64.7746 84.5164 67.5402 87.2812 70.9512 87.2812C74.362 87.281 77.1267 84.5163 77.127 81.1055C77.127 77.6945 74.3621 74.9289 70.9512 74.9287ZM124.994 59.4873C121.583 59.4873 118.817 62.2529 118.817 65.6641C118.818 69.075 121.583 71.8398 124.994 71.8398C128.405 71.8396 131.17 69.0749 131.17 65.6641C131.17 62.2531 128.405 59.4875 124.994 59.4873Z" fill="white"/>
<path d="M744.861 115.759C744.861 123.084 746.939 129.097 751.093 133.799C755.248 138.391 760.605 140.687 767.165 140.687C773.725 140.687 779.083 138.391 783.237 133.799C787.501 129.097 789.633 123.084 789.633 115.759C789.633 108.324 787.501 102.256 783.237 97.5546C779.083 92.8532 773.725 90.5026 767.165 90.5026C760.605 90.5026 755.248 92.8532 751.093 97.5546C746.939 102.256 744.861 108.324 744.861 115.759ZM815.053 115.759C815.053 128.769 810.516 139.757 801.441 148.723C792.367 157.688 780.941 162.171 767.165 162.171C753.499 162.171 742.128 157.688 733.053 148.723C723.979 139.757 719.441 128.769 719.441 115.759C719.441 102.639 723.979 91.5959 733.053 82.6306C742.128 73.5559 753.499 69.0186 767.165 69.0186C780.941 69.0186 792.367 73.5559 801.441 82.6306C810.516 91.5959 815.053 102.639 815.053 115.759Z" fill="#FFBF00"/>
<path d="M711.036 156.594C708.522 158.453 705.406 159.874 701.688 160.858C698.08 161.733 694.308 162.17 690.372 162.17C679.767 162.17 671.622 159.492 665.936 154.134C660.251 148.777 657.408 140.905 657.408 130.518V53.1104H682.992V74.5943H704.804V94.2744H682.992V130.19C682.992 133.908 683.922 136.805 685.78 138.882C687.639 140.85 690.318 141.834 693.816 141.834C697.752 141.834 701.251 140.741 704.312 138.554L711.036 156.594Z" fill="#FFBF00"/>
<path d="M611.443 119.202V70.4941H634.239V129.37C634.239 139.21 631.998 146.645 627.515 151.674C623.142 156.703 616.582 160.202 607.835 162.17C599.198 164.138 590.287 164.302 581.103 162.662C572.029 161.022 564.867 157.797 559.619 152.986C552.95 146.754 549.615 137.515 549.615 125.27V70.4941H574.871V119.694C574.871 126.363 576.621 131.447 580.119 134.946C583.727 138.445 588.265 140.194 593.731 140.194C599.089 140.194 603.353 138.226 606.523 134.29C609.803 130.245 611.443 125.215 611.443 119.202Z" fill="#FFBF00"/>
<path d="M475.754 160.859H450.662V53.4388L475.754 36.2188V100.179L503.798 70.3307H535.614L501.174 106.903L536.926 160.859H507.078L483.954 126.255L475.754 134.783V160.859Z" fill="#FFBF00"/>
<path d="M426.811 72.6264V160.858H402.375V150.69C396.034 158.344 386.85 162.17 374.823 162.17C366.514 162.17 358.97 160.312 352.191 156.594C345.522 152.877 340.274 147.574 336.447 140.686C332.62 133.798 330.707 125.817 330.707 116.742C330.707 107.668 332.62 99.6864 336.447 92.7984C340.274 85.9104 345.522 80.6078 352.191 76.8904C358.97 73.1731 366.514 71.3145 374.823 71.3145C386.084 71.3145 394.886 74.8678 401.227 81.9744V72.6264H426.811ZM379.251 141.178C385.702 141.178 391.059 138.992 395.323 134.618C399.587 130.136 401.719 124.177 401.719 116.742C401.719 109.308 399.587 103.404 395.323 99.0304C391.059 94.5478 385.702 92.3064 379.251 92.3064C372.691 92.3064 367.279 94.5478 363.015 99.0304C358.751 103.404 356.619 109.308 356.619 116.742C356.619 124.177 358.751 130.136 363.015 134.618C367.279 138.992 372.691 141.178 379.251 141.178Z" fill="#FFBF00"/>
<path d="M255.219 112.151V160.859H230.127V48.8468L255.219 36.2188V80.6628C262.872 72.9001 271.4 69.0188 280.803 69.0188C290.315 69.0188 298.296 72.4081 304.747 79.1868C311.307 85.8561 314.587 94.7668 314.587 105.919V160.859H289.331V111.495C289.331 97.6094 284.247 90.6667 274.079 90.6667C269.05 90.6667 264.622 92.4708 260.795 96.0788C257.078 99.6868 255.219 105.044 255.219 112.151Z" fill="#FFBF00"/>
</svg>
