<svg width="183" height="216" viewBox="0 0 183 216" fill="none" xmlns="http://www.w3.org/2000/svg">
<path d="M131.172 106.09C159.314 106.09 182.127 128.903 182.127 157.045C182.127 185.187 159.314 208 131.172 208C114.715 208 100.083 200.196 90.7676 188.09C92.0663 186.723 93.3498 185.255 94.4863 183.791C95.8712 182.007 97.1824 180.053 98.0156 178.171C98.4326 177.229 98.8006 176.148 98.9336 175.012C99.0671 173.871 98.989 172.416 98.2002 171.023C97.2758 169.393 95.7746 168.625 94.6055 168.271C93.4428 167.92 92.2204 167.849 91.1445 167.876C88.9761 167.931 86.4706 168.42 84.1045 169.032C83.3409 169.23 82.5677 169.449 81.7959 169.68C80.7651 165.639 80.2168 161.406 80.2168 157.045C80.2168 148.539 82.3035 140.52 85.9893 133.471C87.9448 133.422 89.9754 133.23 91.7295 132.732C93.3829 132.263 96.1581 131.132 97.1357 128.199C98.1722 125.089 96.3112 122.433 95.2314 121.152C95.1969 121.111 95.1612 121.071 95.126 121.03C104.348 111.8 117.093 106.09 131.172 106.09ZM90.165 175.968C89.6786 176.815 89.0063 177.805 88.168 178.885C87.5757 179.648 86.9343 180.412 86.2744 181.157C85.591 179.887 84.9578 178.586 84.3818 177.255C84.9599 177.085 85.5381 176.924 86.1094 176.776C87.6605 176.375 89.0407 176.102 90.165 175.968Z" fill="#FFBF00"/>
<path d="M91.0244 45.8701C94.5961 45.8701 98.106 46.1347 101.536 46.6436C101.442 51.0691 100.462 54.7995 99.5157 57.4502C97.7084 57.4502 92.133 55.2602 84.8457 46.1357C86.882 45.9603 88.9427 45.8701 91.0244 45.8701ZM68.6338 8.00098C70.9497 7.96201 78.8998 9.04143 89.4785 19.6201C95.9955 26.1371 99.2568 32.6083 100.657 38.4531C97.8301 38.1096 94.9571 37.9138 92.0459 37.877L91.0244 37.8701C87.1374 37.8701 83.3159 38.1513 79.5791 38.6934C78.0314 36.2528 76.4358 33.51 74.8096 30.4287C68.181 17.8692 66.3184 8.04099 68.6338 8.00098Z" fill="white"/>
<path d="M160.509 171.714C160.509 184.932 149.794 195.647 136.576 195.647C123.358 195.647 112.643 184.932 112.643 171.714C112.643 158.496 123.358 147.78 136.576 147.78C149.794 147.78 160.509 158.496 160.509 171.714Z" fill="#CC972E"/>
<path d="M152.788 128.479C152.788 134.875 147.603 140.06 141.208 140.06C134.812 140.06 129.627 134.875 129.627 128.479C129.627 122.083 134.812 116.898 141.208 116.898C147.603 116.898 152.788 122.083 152.788 128.479Z" fill="#CC972E"/>
<path d="M124.995 135.427C124.995 138.838 122.23 141.604 118.819 141.604C115.408 141.604 112.643 138.838 112.643 135.427C112.643 132.016 115.408 129.251 118.819 129.251C122.23 129.251 124.995 132.016 124.995 135.427Z" fill="#CC972E"/>
<path d="M1.10059 38.0285C3.24429 37.8365 6.10599 37.8159 9.30273 38.1896C15.7435 38.9426 23.1379 41.2436 28.875 46.5021C32.0755 49.4356 35.6796 54.8056 38.8652 60.5792C42.0086 66.2762 44.4893 71.894 45.5547 74.9718L49.335 73.6632L40.0703 85.2433L41.335 81.4484C40.6892 81.2328 38.2211 79.9876 34.123 77.4581C30.1877 75.0291 25.0666 71.6168 19.2822 67.3546C12.6548 62.4712 7.21403 54.5941 3.69434 47.5548C1.94863 44.0634 0.753615 40.9334 0.138672 38.6857C0.0871281 38.4973 0.0414008 38.3189 0 38.1515C0.334324 38.1072 0.70174 38.0642 1.10059 38.0285Z" fill="white"/>
<path d="M91.0244 45.8701C126.666 45.8701 156.174 72.1216 161.272 106.344C152.461 101.101 142.168 98.0898 131.171 98.0898C114.603 98.0898 99.6311 104.924 88.9209 115.927C85.6003 113.762 81.885 111.868 79.3848 110.868L76.4141 118.296C78.7045 119.212 82.5996 121.227 85.7139 123.414C86.6789 124.092 87.4899 124.733 88.126 125.308C87.3647 125.406 86.4483 125.469 85.3936 125.482C81.7931 125.53 77.5392 125.028 74.7246 124.538L73.3535 132.42C74.4903 132.618 75.8518 132.819 77.3301 132.994C74.0441 140.339 72.2158 148.478 72.2158 157.045C72.2158 162.343 72.9183 167.478 74.2295 172.362C73.1536 172.807 72.204 173.231 71.4414 173.605L74.9697 180.786C77.2045 179.688 81.8454 177.88 86.1084 176.776C87.6595 176.375 89.0397 176.102 90.1641 175.968C89.6776 176.815 89.0053 177.805 88.167 178.885C85.7623 181.982 82.5662 185.124 80.4756 186.764L80.8711 187.268L80.1738 186.641C80.2715 186.809 80.3685 186.977 80.4678 187.144C68.976 185.431 58.3827 180.969 49.3809 174.443C47.7284 176.982 44.8681 178.662 41.6133 178.662C36.4967 178.662 32.3486 174.514 32.3486 169.397C32.3487 166.343 33.8274 163.634 36.1074 161.946C26.0401 149.688 19.9961 133.999 19.9961 116.898C19.9961 104.754 23.0438 93.3224 28.416 83.3252C28.9331 83.6519 29.4343 83.9659 29.9199 84.2656C33.8878 86.7147 37.1332 88.4808 38.8047 89.0381L41.334 81.4482C40.6882 81.2327 38.2202 79.9875 34.1221 77.458C33.6307 77.1547 33.1211 76.8356 32.5938 76.502C35.2505 72.6664 38.2765 69.1062 41.6182 65.8701C43.4323 69.5679 44.8244 72.8649 45.5537 74.9717L53.1143 72.3545C52.1269 69.5023 50.2403 65.1381 47.8652 60.4814C59.8278 51.3162 74.7902 45.8701 91.0244 45.8701ZM114.326 84.0195C115.226 87.2039 113.374 90.5153 110.189 91.416C107.104 92.2882 103.9 90.5775 102.884 87.5742L102.793 87.2803L97.9814 88.6406C98.8819 91.8253 97.0294 95.1376 93.8447 96.0381C90.6602 96.9383 87.3488 95.0868 86.4482 91.9023L81.6367 93.2627C83.2886 99.1044 89.3633 102.501 95.2051 100.85C98.4968 99.9188 101.012 97.5831 102.285 94.6768C104.892 96.4861 108.258 97.1582 111.55 96.2275C117.391 94.5755 120.788 88.5009 119.137 82.6592L114.326 84.0195ZM70.9512 82.9287C67.5401 82.9287 64.7744 85.6944 64.7744 89.1055C64.7746 92.5164 67.5402 95.2812 70.9512 95.2812C74.362 95.281 77.1267 92.5163 77.127 89.1055C77.127 85.6945 74.3621 82.9289 70.9512 82.9287ZM124.994 67.4873C121.583 67.4873 118.817 70.2529 118.817 73.6641C118.818 77.075 121.583 79.8398 124.994 79.8398C128.405 79.8396 131.17 77.0749 131.17 73.6641C131.17 70.2531 128.405 67.4875 124.994 67.4873Z" fill="white"/>
</svg>
