<svg width="199" height="216" viewBox="0 0 199 216" fill="none" xmlns="http://www.w3.org/2000/svg">
<style>
  .brand { fill: #2A305A; }
  @media (prefers-color-scheme: dark) {
    .brand { fill: #FFFFFF; }
  }
</style>
<path class="brand" d="M77.2837 0C82.2708 0.0661388 91.974 2.48422 103.452 13.9619C112.361 22.8713 116.35 32.1182 117.496 40.5449C118.622 48.8329 116.926 55.768 115.365 60.1396L113.469 65.4492H107.832C105.374 65.4492 102.935 64.5553 100.922 63.5273C98.6993 62.3918 96.2409 60.7042 93.6274 58.3496C88.4003 53.64 82.3321 46.0646 76.0503 34.1621C72.5098 27.4538 70.1165 21.2487 68.9214 16.4531C68.3495 14.1584 67.9181 11.6682 68.0132 9.41699C68.0572 8.37537 68.2364 6.54643 69.2134 4.70703C70.4091 2.45598 72.9785 0.0655418 76.8159 0.000976562L77.2837 0ZM76.9497 8C74.6343 8.03993 76.4969 17.8682 83.1255 30.4277C94.671 52.3037 104.618 57.1539 107.568 57.4355L107.832 57.4492C110.365 50.356 113.147 35.5324 98.5054 20.3428L97.7944 19.6191C87.2157 9.04045 79.2656 7.96103 76.9497 8Z"/>
<path d="M99.3388 45.8691C138.567 45.8692 170.367 77.6696 170.367 116.897C170.367 156.125 138.567 187.926 99.3388 187.926C85.5759 187.926 72.7275 184.011 61.8457 177.234C59.2947 181.105 54.9103 183.661 49.9277 183.661C42.0498 183.661 35.6631 177.274 35.6631 169.396C35.6632 164.723 37.911 160.573 41.3848 157.972C33.1513 146.376 28.3106 132.202 28.3105 116.897C28.3105 77.6696 60.111 45.8691 99.3388 45.8691Z" fill="white"/>
<path class="brand" d="M170.367 116.897C170.367 77.6696 138.567 45.8692 99.3389 45.8691C60.111 45.8691 28.3105 77.6696 28.3105 116.897C28.3106 132.202 33.1513 146.376 41.3848 157.972C37.911 160.573 35.6632 164.723 35.6631 169.396C35.6631 177.274 42.0498 183.661 49.9277 183.661C54.9103 183.661 59.2947 181.105 61.8457 177.234C72.7275 184.011 85.5759 187.926 99.3389 187.926C138.567 187.926 170.367 156.125 170.367 116.897ZM178.36 117.919C177.818 160.754 143.196 195.376 100.36 195.919L99.3389 195.926C86.3513 195.926 74.0806 192.785 63.2588 187.223C59.727 189.868 55.3799 191.497 50.6553 191.649L49.9277 191.661C37.8238 191.661 27.9745 182.002 27.6699 169.971L27.6631 169.396C27.6632 164.875 29.0147 160.668 31.3271 157.159C24.4579 145.578 20.4569 132.09 20.3145 117.694L20.3105 116.897C20.3105 73.2514 55.6928 37.8691 99.3389 37.8691L100.36 37.876C143.536 38.4229 178.367 73.5924 178.367 116.897L178.36 117.919Z"/>
<path d="M190.441 157.044C190.441 185.186 167.628 207.999 139.486 207.999C111.345 207.999 88.5312 185.186 88.5312 157.044C88.5312 128.902 111.345 106.089 139.486 106.089C167.628 106.089 190.441 128.902 190.441 157.044Z" fill="#FFBF00"/>
<path class="brand" d="M190.441 157.044C190.441 129.122 167.983 106.445 140.145 106.093L139.486 106.089C111.345 106.089 88.5312 128.902 88.5312 157.044L88.5352 157.702C88.8848 185.321 111.209 207.645 138.828 207.995L139.486 207.999C167.408 207.999 190.085 185.541 190.438 157.702L190.441 157.044ZM198.441 157.044C198.441 189.604 172.046 215.999 139.486 215.999C106.926 215.999 80.5313 189.604 80.5312 157.044C80.5312 124.484 106.926 98.0889 139.486 98.0889C172.046 98.0889 198.441 124.484 198.441 157.044Z"/>
<path d="M168.824 171.713C168.824 184.931 158.109 195.646 144.89 195.646C131.672 195.646 120.957 184.931 120.957 171.713C120.957 158.495 131.672 147.779 144.89 147.779C158.109 147.779 168.824 158.495 168.824 171.713Z" fill="#CC972E"/>
<path d="M161.103 128.478C161.103 134.874 155.918 140.059 149.522 140.059C143.126 140.059 137.941 134.874 137.941 128.478C137.941 122.082 143.126 116.897 149.522 116.897C155.918 116.897 161.103 122.082 161.103 128.478Z" fill="#CC972E"/>
<path d="M133.31 135.426C133.31 138.837 130.545 141.603 127.133 141.603C123.722 141.603 120.957 138.837 120.957 135.426C120.957 132.015 123.722 129.25 127.133 129.25C130.545 129.25 133.31 132.015 133.31 135.426Z" fill="#CC972E"/>
<path d="M39.8923 43.5523C47.3042 50.346 55.3332 66.971 57.6493 73.6621L48.3847 85.2425C46.0686 84.4704 36.9585 79.2205 25.2234 70.5736C10.5545 59.7649 2.062 36.6039 4.37814 35.0598C6.69428 33.5157 26.7671 31.5218 39.8923 43.5523Z" fill="white"/>
<path class="brand" d="M8.70247 30.0597C11.3837 29.8195 14.7951 29.8038 18.5462 30.2423C26.002 31.1139 35.2071 33.8319 42.5951 40.6036C46.8063 44.4636 50.9231 50.8031 54.1839 56.713C57.487 62.6995 60.1793 68.7403 61.43 72.3536L53.8695 74.9708C52.8041 71.893 50.3234 66.2754 47.18 60.5782C43.9943 54.8045 40.3903 49.4347 37.1898 46.5011C31.4526 41.2424 24.0583 38.9416 17.6175 38.1886C14.4206 37.8148 11.5591 37.8354 9.41536 38.0274C9.0164 38.0632 8.64918 38.1062 8.31478 38.1505C8.3562 38.318 8.40187 38.4961 8.45345 38.6847C9.06841 40.9324 10.2633 44.0623 12.0091 47.5538C15.5289 54.5932 20.9695 62.4702 27.597 67.3536C33.3815 71.6159 38.5024 75.0281 42.4378 77.4571C46.5367 79.987 49.0045 81.2321 49.6497 81.4473L47.1204 89.0372C45.449 88.48 42.2038 86.714 38.2357 84.2647C34.1033 81.7141 28.8013 78.1785 22.8509 73.794C14.8096 67.8688 8.66854 58.7603 4.85384 51.1309C2.93256 47.2884 1.52197 43.6628 0.737627 40.796C0.352336 39.3877 0.0715106 37.9976 0.0120413 36.7813C-0.0171177 36.1847 -0.004659 35.4327 0.179034 34.6641C0.346626 33.9631 0.80684 32.6333 2.1595 31.7315L2.34114 31.6163C3.26222 31.0563 4.3702 30.7612 5.15462 30.585C6.15975 30.3593 7.36465 30.1795 8.70247 30.0597Z"/>
<path d="M101.655 126.934C102.89 123.228 91.3607 116.64 86.2137 114.581L82.3535 128.478C88.2725 129.507 100.419 130.64 101.655 126.934Z" fill="white"/>
<path class="brand" d="M87.6992 110.867C90.5557 112.01 94.998 114.318 98.626 116.866C100.424 118.129 102.233 119.596 103.545 121.151C104.625 122.432 106.486 125.088 105.449 128.198C104.472 131.131 101.696 132.262 100.043 132.731C98.1417 133.271 95.9157 133.454 93.8125 133.481C89.5512 133.537 84.7723 132.959 81.668 132.419L83.0391 124.537C85.8536 125.027 90.1075 125.529 93.708 125.481C94.7627 125.468 95.6791 125.405 96.4404 125.307C95.8044 124.732 94.9934 124.091 94.0283 123.413C90.914 121.226 87.0189 119.211 84.7285 118.295L87.6992 110.867Z"/>
<path d="M103.035 172.995C101.109 169.597 86.4964 174.75 81.5212 177.195L85.0005 183.5L90.0008 187.999C94.7282 184.292 104.96 176.394 103.035 172.995Z" fill="white"/>
<path class="brand" d="M79.756 173.605C82.4965 172.258 87.6495 170.266 92.4178 169.032C94.784 168.419 97.2892 167.93 99.4577 167.875C100.534 167.848 101.756 167.919 102.919 168.271C104.088 168.625 105.589 169.392 106.514 171.023C107.302 172.415 107.381 173.87 107.248 175.011C107.115 176.147 106.746 177.228 106.329 178.17C105.496 180.052 104.185 182.006 102.8 183.79C100.018 187.374 96.3634 190.99 93.7266 193.058L88.7898 186.762C90.8804 185.123 94.0766 181.981 96.4813 178.884C97.3197 177.804 97.9918 176.814 98.4782 175.966C97.3538 176.101 95.9739 176.374 94.4226 176.776C90.1596 177.879 85.5186 179.687 83.2839 180.785L79.756 173.605Z"/>
<path class="brand" d="M94.7645 91.9013C95.665 95.0858 98.9765 96.9372 102.161 96.0369C105.346 95.1364 107.198 91.8248 106.298 88.6401L111.109 87.2797L111.2 87.5735C112.216 90.5768 115.42 92.2875 118.506 91.4153C121.69 90.5148 123.542 87.2031 122.642 84.0185L127.454 82.6581C129.105 88.4999 125.708 94.5748 119.866 96.2267C116.574 97.1574 113.208 96.4849 110.601 94.6754C109.328 97.5818 106.813 99.9175 103.521 100.848C97.6797 102.5 91.605 99.1035 89.9531 93.2617L94.7645 91.9013Z"/>
<path class="brand" d="M139.486 73.6627C139.486 77.0738 136.72 79.8391 133.309 79.8391C129.898 79.8391 127.133 77.0738 127.133 73.6627C127.133 70.2516 129.898 67.4863 133.309 67.4863C136.72 67.4863 139.486 70.2516 139.486 73.6627Z"/>
<path class="brand" d="M85.4426 89.1041C85.4426 92.5152 82.6773 95.2805 79.2662 95.2805C75.8551 95.2805 73.0898 92.5152 73.0898 89.1041C73.0898 85.693 75.8551 82.9277 79.2662 82.9277C82.6773 82.9277 85.4426 85.693 85.4426 89.1041Z"/>
</svg>
